<svg xmlns="http://www.w3.org/2000/svg" viewBox="0 0 48 60" x="0px" y="0px"><title>Testing</title><g><path d="M45,5H42V2a1,1,0,0,0-1-1H7A1,1,0,0,0,6,2V5H3A3,3,0,0,0,0,8V35a3,3,0,0,0,3,3H19.78l-.6,3H18a3,3,0,0,0-3,3v2a1,1,0,0,0,1,1H32a1,1,0,0,0,1-1V44a3,3,0,0,0-3-3H28.82l-.6-3H45a3,3,0,0,0,3-3V8A3,3,0,0,0,45,5ZM8,9H40V25H8ZM8,3H40V7H8ZM2,8A1,1,0,0,1,3,7H6V26a1,1,0,0,0,1,1H41a1,1,0,0,0,1-1V7h3a1,1,0,0,1,1,1V31H2ZM31,44v1H17V44a1,1,0,0,1,1-1H30A1,1,0,0,1,31,44Zm-4.22-3H21.22l.6-3h4.36ZM46,35a1,1,0,0,1-1,1H3a1,1,0,0,1-1-1V33H46Z"/><path d="M11.88,5.38a1,1,0,0,0-1.63-1.09C9.14,5.52,11.28,6.82,11.88,5.38Z"/><path d="M13.21,5.71A1,1,0,1,0,14.3,4.08,1,1,0,0,0,13.21,5.71Z"/><path d="M16.16,5.71A1,1,0,1,0,17.06,4,1,1,0,0,0,16.16,5.71Z"/><path d="M32,11a6,6,0,1,0,6,6A6,6,0,0,0,32,11Zm0,10a4,4,0,1,1,4-4A4,4,0,0,1,32,21Z"/><path d="M32.71,14.88l-.71.71-.71-.71a1,1,0,0,0-1.41,1.41l.71.71-.71.71a1,1,0,0,0,1.41,1.41l.71-.71.71.71a1,1,0,0,0,1.41-1.41L33.41,17l.71-.71A1,1,0,0,0,32.71,14.88Z"/><path d="M16,11a6,6,0,1,0,6,6A6,6,0,0,0,16,11Zm0,10a4,4,0,1,1,4-4A4,4,0,0,1,16,21Z"/><path d="M17.29,15l-2,2-.62-.63a1,1,0,0,0-1.42,1.42c2.39,2.39,1.7,2.38,5.42-1.34A1,1,0,0,0,17.29,15Z"/></g><text x="0" y="63" fill="#000000" font-size="5px" font-weight="bold" font-family="'Helvetica Neue', Helvetica, Arial-Unicode, Arial, Sans-serif">Created by tezar tantular</text><text x="0" y="68" fill="#000000" font-size="5px" font-weight="bold" font-family="'Helvetica Neue', Helvetica, Arial-Unicode, Arial, Sans-serif">from the Noun Project</text></svg>